<svg width="142" height="27" viewBox="0 0 142 27" fill="none" xmlns="http://www.w3.org/2000/svg">
<path d="M13.5077 21.215L19.3226 24.9071C20.0725 25.3801 20.9956 24.6763 20.7763 23.811L19.0919 17.1884C19.0463 17.0048 19.0535 16.8121 19.1127 16.6325C19.1719 16.4529 19.2807 16.2936 19.4264 16.1731L24.6414 11.8234C25.3222 11.2581 24.976 10.1159 24.0876 10.0582L17.2804 9.61974C17.0947 9.60893 16.9161 9.54426 16.7666 9.43361C16.617 9.32297 16.5029 9.17115 16.4382 8.99671L13.8999 2.60488C13.8327 2.42017 13.7103 2.2606 13.5493 2.14785C13.3883 2.03509 13.1966 1.97461 13 1.97461C12.8034 1.97461 12.6117 2.03509 12.4507 2.14785C12.2897 2.2606 12.1673 2.42017 12.1001 2.60488L9.56179 8.99671C9.4971 9.17115 9.383 9.32297 9.23343 9.43361C9.08385 9.54426 8.90529 9.60893 8.71955 9.61974L1.91237 10.0582C1.02397 10.1159 0.677844 11.2581 1.35856 11.8234L6.57356 16.1731C6.71932 16.2936 6.82806 16.4529 6.88726 16.6325C6.94645 16.8121 6.9537 17.0048 6.90815 17.1884L5.35057 23.3264C5.08521 24.3648 6.19282 25.207 7.08121 24.6417L12.4923 21.215C12.6441 21.1185 12.8202 21.0673 13 21.0673C13.1798 21.0673 13.3559 21.1185 13.5077 21.215Z" fill="#FFB61D" stroke="#FFB61D" stroke-width="2" stroke-linecap="round" stroke-linejoin="round"/>
<path d="M42.5077 21.215L48.3226 24.9071C49.0725 25.3801 49.9956 24.6763 49.7763 23.811L48.0919 17.1884C48.0463 17.0048 48.0535 16.8121 48.1127 16.6325C48.1719 16.4529 48.2807 16.2936 48.4264 16.1731L53.6414 11.8234C54.3222 11.2581 53.976 10.1159 53.0876 10.0582L46.2804 9.61974C46.0947 9.60893 45.9161 9.54426 45.7666 9.43361C45.617 9.32297 45.5029 9.17115 45.4382 8.99671L42.8999 2.60488C42.8327 2.42017 42.7103 2.2606 42.5493 2.14785C42.3883 2.03509 42.1966 1.97461 42 1.97461C41.8034 1.97461 41.6117 2.03509 41.4507 2.14785C41.2897 2.2606 41.1673 2.42017 41.1001 2.60488L38.5618 8.99671C38.4971 9.17115 38.383 9.32297 38.2334 9.43361C38.0839 9.54426 37.9053 9.60893 37.7196 9.61974L30.9124 10.0582C30.024 10.1159 29.6778 11.2581 30.3586 11.8234L35.5736 16.1731C35.7193 16.2936 35.8281 16.4529 35.8873 16.6325C35.9465 16.8121 35.9537 17.0048 35.9081 17.1884L34.3506 23.3264C34.0852 24.3648 35.1928 25.207 36.0812 24.6417L41.4923 21.215C41.6441 21.1185 41.8202 21.0673 42 21.0673C42.1798 21.0673 42.3559 21.1185 42.5077 21.215Z" fill="#FFB61D" stroke="#FFB61D" stroke-width="2" stroke-linecap="round" stroke-linejoin="round"/>
<path d="M71.5077 21.215L77.3226 24.9071C78.0725 25.3801 78.9956 24.6763 78.7763 23.811L77.0919 17.1884C77.0463 17.0048 77.0535 16.8121 77.1127 16.6325C77.1719 16.4529 77.2807 16.2936 77.4264 16.1731L82.6414 11.8234C83.3222 11.2581 82.976 10.1159 82.0876 10.0582L75.2804 9.61974C75.0947 9.60893 74.9161 9.54426 74.7666 9.43361C74.617 9.32297 74.5029 9.17115 74.4382 8.99671L71.8999 2.60488C71.8327 2.42017 71.7103 2.2606 71.5493 2.14785C71.3883 2.03509 71.1966 1.97461 71 1.97461C70.8034 1.97461 70.6117 2.03509 70.4507 2.14785C70.2897 2.2606 70.1673 2.42017 70.1001 2.60488L67.5618 8.99671C67.4971 9.17115 67.383 9.32297 67.2334 9.43361C67.0839 9.54426 66.9053 9.60893 66.7196 9.61974L59.9124 10.0582C59.024 10.1159 58.6778 11.2581 59.3586 11.8234L64.5736 16.1731C64.7193 16.2936 64.8281 16.4529 64.8873 16.6325C64.9465 16.8121 64.9537 17.0048 64.9081 17.1884L63.3506 23.3264C63.0852 24.3648 64.1928 25.207 65.0812 24.6417L70.4923 21.215C70.6441 21.1185 70.8202 21.0673 71 21.0673C71.1798 21.0673 71.3559 21.1185 71.5077 21.215Z" fill="#FFB61D" stroke="#FFB61D" stroke-width="2" stroke-linecap="round" stroke-linejoin="round"/>
<path d="M100.508 21.215L106.323 24.9071C107.073 25.3801 107.996 24.6763 107.776 23.811L106.092 17.1884C106.046 17.0048 106.054 16.8121 106.113 16.6325C106.172 16.4529 106.281 16.2936 106.426 16.1731L111.641 11.8234C112.322 11.2581 111.976 10.1159 111.088 10.0582L104.28 9.61974C104.095 9.60893 103.916 9.54426 103.767 9.43361C103.617 9.32297 103.503 9.17115 103.438 8.99671L100.9 2.60488C100.833 2.42017 100.71 2.2606 100.549 2.14785C100.388 2.03509 100.197 1.97461 100 1.97461C99.8034 1.97461 99.6117 2.03509 99.4507 2.14785C99.2897 2.2606 99.1673 2.42017 99.1001 2.60488L96.5618 8.99671C96.4971 9.17115 96.383 9.32297 96.2334 9.43361C96.0839 9.54426 95.9053 9.60893 95.7196 9.61974L88.9124 10.0582C88.024 10.1159 87.6778 11.2581 88.3586 11.8234L93.5736 16.1731C93.7193 16.2936 93.8281 16.4529 93.8873 16.6325C93.9465 16.8121 93.9537 17.0048 93.9081 17.1884L92.3506 23.3264C92.0852 24.3648 93.1928 25.207 94.0812 24.6417L99.4923 21.215C99.6441 21.1185 99.8202 21.0673 100 21.0673C100.18 21.0673 100.356 21.1185 100.508 21.215Z" fill="#FFB61D" stroke="#FFB61D" stroke-width="2" stroke-linecap="round" stroke-linejoin="round"/>
<path d="M129.508 21.215L135.323 24.9071C136.073 25.3801 136.996 24.6763 136.776 23.811L135.092 17.1884C135.046 17.0048 135.054 16.8121 135.113 16.6325C135.172 16.4529 135.281 16.2936 135.426 16.1731L140.641 11.8234C141.322 11.2581 140.976 10.1159 140.088 10.0582L133.28 9.61974C133.095 9.60893 132.916 9.54426 132.767 9.43361C132.617 9.32297 132.503 9.17115 132.438 8.99671L129.9 2.60488C129.833 2.42017 129.71 2.2606 129.549 2.14785C129.388 2.03509 129.197 1.97461 129 1.97461C128.803 1.97461 128.612 2.03509 128.451 2.14785C128.29 2.2606 128.167 2.42017 128.1 2.60488L125.562 8.99671C125.497 9.17115 125.383 9.32297 125.233 9.43361C125.084 9.54426 124.905 9.60893 124.72 9.61974L117.912 10.0582C117.024 10.1159 116.678 11.2581 117.359 11.8234L122.574 16.1731C122.719 16.2936 122.828 16.4529 122.887 16.6325C122.946 16.8121 122.954 17.0048 122.908 17.1884L121.351 23.3264C121.085 24.3648 122.193 25.207 123.081 24.6417L128.492 21.215C128.644 21.1185 128.82 21.0673 129 21.0673C129.18 21.0673 129.356 21.1185 129.508 21.215Z" fill="#FFB61D" stroke="#FFB61D" stroke-width="2" stroke-linecap="round" stroke-linejoin="round"/>
</svg>
