<svg width="39" height="35" viewBox="0 0 39 35" fill="none" xmlns="http://www.w3.org/2000/svg">
<path d="M38.8203 17.5439C38.8203 7.85965 30.3083 0 19.8203 0C9.33231 0 0.820313 7.85965 0.820313 17.5439C0.820313 26.0351 7.35631 33.1053 16.0203 34.7368L16.0203 22.807L12.2203 22.807L12.2203 17.5439L16.0203 17.5439L16.0203 13.1579C16.0203 9.77193 19.0033 7.01754 22.6703 7.01754L27.4203 7.01754L27.4203 12.2807L23.6203 12.2807C22.5753 12.2807 21.7203 13.0702 21.7203 14.0351L21.7203 17.5439L27.4203 17.5439L27.4203 22.807L21.7203 22.807L21.7203 35C31.3153 34.1228 38.8203 26.6491 38.8203 17.5439Z" fill="white"/>
</svg>
