<svg width="38" height="52" viewBox="0 0 38 52" fill="none" xmlns="http://www.w3.org/2000/svg">
<g id="Group 19">
<path id="Drop 1" fill-rule="evenodd" clip-rule="evenodd" d="M36.7975 18.6126C36.9244 8.67036 28.84 0.359534 18.7611 0.230935C8.83952 0.104343 0.54568 8.2062 0.418824 18.1485C0.279889 29.0375 11.284 43.0678 18.1107 51.2047C25.1486 42.7712 36.6526 29.9752 36.7975 18.6126Z" fill="#114455"/>
<rect id="Rectangle 21" width="4.2533" height="18.5631" rx="2.12665" transform="matrix(-1 0 0 1 20.6406 14.5498)" fill="#E9F4FB"/>
<rect id="Rectangle 22" width="4.2533" height="13.4207" rx="2.12665" transform="matrix(-1 0 0 1 26.8906 19.6924)" fill="#E9F4FB"/>
<rect id="Rectangle 23" width="4.2533" height="12.7599" rx="2.12665" transform="matrix(-1 0 0 1 14.3945 20.3535)" fill="#E9F4FB"/>
<circle id="Ellipse 7" cx="2.70337" cy="2.70337" r="2.70337" transform="matrix(-1 0 0 1 27.4648 13.9131)" fill="#E9F4FB"/>
<circle id="Ellipse 8" cx="2.70337" cy="2.70337" r="2.70337" transform="matrix(-1 0 0 1 21.2148 8.84277)" fill="#E9F4FB"/>
<circle id="Ellipse 9" cx="2.70337" cy="2.70337" r="2.70337" transform="matrix(-1 0 0 1 14.9688 14.5498)" fill="#E9F4FB"/>
</g>
</svg>
