<svg width="38" height="52" viewBox="0 0 38 52" fill="none" xmlns="http://www.w3.org/2000/svg">
<g id="Group 25">
<g id="Group 19">
<path id="Drop 1" fill-rule="evenodd" clip-rule="evenodd" d="M36.7972 18.6119C36.9241 8.66973 28.8397 0.358974 18.761 0.230376C8.83945 0.103785 0.545676 8.20557 0.418821 18.1478C0.279887 29.0367 11.2839 43.0669 18.1106 51.2037C25.1484 42.7703 36.6523 29.9744 36.7972 18.6119Z" fill="#A9F8E7"/>
<rect id="Rectangle 21" width="4.25327" height="18.563" rx="2.12663" transform="matrix(-1 0 0 1 20.6406 14.5508)" fill="#0A2923"/>
<rect id="Rectangle 22" width="4.25327" height="13.4206" rx="2.12663" transform="matrix(-1 0 0 1 26.8906 19.6914)" fill="#0A2923"/>
<rect id="Rectangle 23" width="4.25327" height="12.7598" rx="2.12663" transform="matrix(-1 0 0 1 14.3984 20.3516)" fill="#0A2923"/>
<circle id="Ellipse 7" cx="2.70335" cy="2.70335" r="2.70335" transform="matrix(-1 0 0 1 27.4688 13.9141)" fill="#0A2923"/>
<circle id="Ellipse 8" cx="2.70335" cy="2.70335" r="2.70335" transform="matrix(-1 0 0 1 21.2188 8.84375)" fill="#0A2923"/>
<circle id="Ellipse 9" cx="2.70335" cy="2.70335" r="2.70335" transform="matrix(-1 0 0 1 14.9688 14.5508)" fill="#0A2923"/>
</g>
</g>
</svg>
