<svg width="41" height="39" viewBox="0 0 41 39" fill="none" xmlns="http://www.w3.org/2000/svg">
<path id="Vector" d="M12.0329 0.525391H29.0639C35.5519 0.525391 40.8234 5.45889 40.8234 11.5309V27.4699C40.8234 30.3887 39.5845 33.188 37.3792 35.252C35.1738 37.3159 32.1828 38.4754 29.0639 38.4754H12.0329C5.54494 38.4754 0.273438 33.5419 0.273438 27.4699V11.5309C0.273438 8.61205 1.51238 5.81276 3.71772 3.74883C5.92305 1.6849 8.91412 0.525391 12.0329 0.525391ZM11.6274 4.32039C9.69162 4.32039 7.83509 5.04008 6.46627 6.32115C5.09744 7.60221 4.32844 9.3397 4.32844 11.1514V27.8494C4.32844 31.6254 7.59271 34.6804 11.6274 34.6804H29.4694C31.4053 34.6804 33.2618 33.9607 34.6306 32.6796C35.9994 31.3986 36.7684 29.6611 36.7684 27.8494V11.1514C36.7684 7.37536 33.5042 4.32039 29.4694 4.32039H11.6274ZM31.1928 7.16664C31.865 7.16664 32.5096 7.41653 32.9849 7.86135C33.4602 8.30616 33.7272 8.90946 33.7272 9.53852C33.7272 10.1676 33.4602 10.7709 32.9849 11.2157C32.5096 11.6605 31.865 11.9104 31.1928 11.9104C30.5207 11.9104 29.876 11.6605 29.4007 11.2157C28.9254 10.7709 28.6584 10.1676 28.6584 9.53852C28.6584 8.90946 28.9254 8.30616 29.4007 7.86135C29.876 7.41653 30.5207 7.16664 31.1928 7.16664ZM20.5484 10.0129C23.2371 10.0129 25.8156 11.0125 27.7167 12.7917C29.6179 14.571 30.6859 16.9841 30.6859 19.5004C30.6859 22.0166 29.6179 24.4298 27.7167 26.2091C25.8156 27.9883 23.2371 28.9879 20.5484 28.9879C17.8598 28.9879 15.2813 27.9883 13.3801 26.2091C11.479 24.4298 10.4109 22.0166 10.4109 19.5004C10.4109 16.9841 11.479 14.571 13.3801 12.7917C15.2813 11.0125 17.8598 10.0129 20.5484 10.0129ZM20.5484 13.8079C18.9353 13.8079 17.3882 14.4076 16.2475 15.4752C15.1068 16.5427 14.4659 17.9906 14.4659 19.5004C14.4659 21.0101 15.1068 22.458 16.2475 23.5256C17.3882 24.5931 18.9353 25.1929 20.5484 25.1929C22.1616 25.1929 23.7087 24.5931 24.8494 23.5256C25.9901 22.458 26.6309 21.0101 26.6309 19.5004C26.6309 17.9906 25.9901 16.5427 24.8494 15.4752C23.7087 14.4076 22.1616 13.8079 20.5484 13.8079Z" fill="white"/>
</svg>
