<svg width="32" height="31" viewBox="0 0 32 31" fill="none" xmlns="http://www.w3.org/2000/svg">
<path d="M28.0556 0C28.9691 0 29.8452 0.362896 30.4911 1.00885C31.1371 1.65481 31.5 2.53092 31.5 3.44444V27.5556C31.5 28.4691 31.1371 29.3452 30.4911 29.9911C29.8452 30.6371 28.9691 31 28.0556 31H3.94444C3.03092 31 2.15481 30.6371 1.50885 29.9911C0.862896 29.3452 0.5 28.4691 0.5 27.5556V3.44444C0.5 2.53092 0.862896 1.65481 1.50885 1.00885C2.15481 0.362896 3.03092 0 3.94444 0H28.0556ZM27.1944 26.6944V17.5667C27.1944 16.0776 26.6029 14.6496 25.55 13.5967C24.4971 12.5437 23.069 11.9522 21.58 11.9522C20.1161 11.9522 18.4111 12.8478 17.5844 14.1911V12.2794H12.7794V26.6944H17.5844V18.2039C17.5844 16.8778 18.6522 15.7928 19.9783 15.7928C20.6178 15.7928 21.2311 16.0468 21.6832 16.499C22.1354 16.9511 22.3894 17.5644 22.3894 18.2039V26.6944H27.1944ZM7.18222 9.57556C7.94958 9.57556 8.68551 9.27072 9.22812 8.72812C9.77072 8.18551 10.0756 7.44958 10.0756 6.68222C10.0756 5.08056 8.78389 3.77167 7.18222 3.77167C6.4103 3.77167 5.66998 4.07831 5.12415 4.62415C4.57831 5.16998 4.27167 5.9103 4.27167 6.68222C4.27167 8.28389 5.58056 9.57556 7.18222 9.57556ZM9.57611 26.6944V12.2794H4.80556V26.6944H9.57611Z" fill="white"/>
</svg>
