<svg width="50" height="90" viewBox="0 0 50 90" fill="none" xmlns="http://www.w3.org/2000/svg">
<path d="M48.088 1.98104C49.3123 3.24988 50 4.97057 50 6.76471C50 8.55885 49.3123 10.2795 48.088 11.5484L15.7628 45.0408L48.088 78.5333C49.2776 79.8094 49.9358 81.5186 49.9209 83.2926C49.906 85.0667 49.2192 86.7637 48.0085 88.0182C46.7977 89.2727 45.1598 89.9843 43.4476 89.9997C41.7353 90.0152 40.0857 89.3332 38.8541 88.1007L1.91199 49.8245C0.687744 48.5557 0 46.835 0 45.0408C0 43.2467 0.687744 41.526 1.91199 40.2572L38.8541 1.98104C40.0787 0.71258 41.7394 0 43.4711 0C45.2027 0 46.8634 0.71258 48.088 1.98104Z" fill="white"/>
</svg>
