<svg width="29" height="32" viewBox="0 0 29 32" fill="none" xmlns="http://www.w3.org/2000/svg">
<path d="M22.7143 5.01333C21.4939 3.62583 20.8212 1.84427 20.8214 0H15.3036V22.0444C15.2619 23.2377 14.7563 24.3681 13.8934 25.1973C13.0305 26.0265 11.8779 26.4896 10.6786 26.4889C8.14286 26.4889 6.03572 24.4267 6.03572 21.8667C6.03572 18.8089 9 16.5156 12.0536 17.4578V11.84C5.89286 11.0222 0.5 15.7867 0.5 21.8667C0.5 27.7867 5.42857 32 10.6607 32C16.2679 32 20.8214 27.4667 20.8214 21.8667V10.6844C23.0589 12.2842 25.7453 13.1425 28.5 13.1378V7.64444C28.5 7.64444 25.1429 7.80444 22.7143 5.01333Z" fill="white"/>
</svg>
