<svg width="217" height="55" viewBox="0 0 217 55" fill="none" xmlns="http://www.w3.org/2000/svg">
<path fill-rule="evenodd" clip-rule="evenodd" d="M36.9772 19.1136C37.1041 9.17134 29.0197 0.860511 18.9408 0.731912C9.01921 0.60532 0.725368 8.70717 0.598512 18.6495C0.459576 29.5385 11.4637 43.5688 18.2904 51.7057C25.3283 43.2722 36.8323 30.4762 36.9772 19.1136Z" fill="white"/>
<rect width="4.2533" height="18.5631" rx="2.12665" transform="matrix(-1 0 0 1 20.8203 15.0508)" fill="#0A2923"/>
<rect width="4.2533" height="13.4207" rx="2.12665" transform="matrix(-1 0 0 1 27.0703 20.1934)" fill="#0A2923"/>
<rect width="4.2533" height="12.7599" rx="2.12665" transform="matrix(-1 0 0 1 14.5742 20.8535)" fill="#0A2923"/>
<circle cx="2.70337" cy="2.70337" r="2.70337" transform="matrix(-1 0 0 1 27.6445 14.4141)" fill="#0A2923"/>
<circle cx="2.70337" cy="2.70337" r="2.70337" transform="matrix(-1 0 0 1 21.3945 9.34375)" fill="#0A2923"/>
<circle cx="2.70337" cy="2.70337" r="2.70337" transform="matrix(-1 0 0 1 15.1484 15.0508)" fill="#0A2923"/>
<path d="M75.1816 27.3369C75.6374 27.3369 76.0605 27.4264 76.4512 27.6055C76.8581 27.7682 77.208 27.9961 77.501 28.2891C77.8102 28.5658 78.0462 28.8994 78.209 29.29C78.388 29.6644 78.4775 30.0794 78.4775 30.5352V37.835C78.4775 38.3395 78.3717 38.7871 78.1602 39.1777C77.9648 39.5521 77.7126 39.902 77.4033 40.2275C75.4827 41.8877 73.5378 43.0677 71.5684 43.7676C69.599 44.4512 67.5563 44.793 65.4404 44.793C64.0244 44.7767 62.641 44.5732 61.29 44.1826C59.9554 43.792 58.694 43.2467 57.5059 42.5469C56.334 41.847 55.2598 41.0088 54.2832 40.0322C53.3066 39.0557 52.4603 37.9733 51.7441 36.7852C51.0443 35.5807 50.499 34.2949 50.1084 32.9277C49.7178 31.5443 49.5225 30.1038 49.5225 28.6064C49.5225 27.1253 49.7096 25.693 50.084 24.3096C50.4583 22.9261 50.9873 21.6322 51.6709 20.4277C52.3708 19.207 53.2008 18.1003 54.1611 17.1074C55.1377 16.1146 56.2201 15.2601 57.4082 14.5439C58.6126 13.8278 59.8984 13.2744 61.2656 12.8838C62.6491 12.4769 64.0895 12.2734 65.5869 12.2734C67.8981 12.2734 70.0059 12.6803 71.9102 13.4941C73.8307 14.2917 75.6048 15.4961 77.2324 17.1074C77.5579 17.4329 77.7939 17.791 77.9404 18.1816C78.1032 18.556 78.1846 18.9466 78.1846 19.3535C78.1846 19.7767 78.0951 20.1836 77.916 20.5742C77.737 20.9648 77.4928 21.3066 77.1836 21.5996C76.8906 21.8926 76.5407 22.1286 76.1338 22.3076C75.7269 22.4867 75.3037 22.5762 74.8643 22.5762C74.4574 22.5762 74.0667 22.5029 73.6924 22.3564C73.318 22.21 72.9762 21.9821 72.667 21.6729C71.6742 20.6963 70.5755 19.9801 69.3711 19.5244C68.1829 19.0687 66.946 18.8408 65.6602 18.8408C64.3581 18.8408 63.1211 19.0931 61.9492 19.5977C60.7936 20.0859 59.7764 20.7695 58.8975 21.6484C58.0186 22.5111 57.3187 23.5365 56.7979 24.7246C56.2933 25.9128 56.041 27.1904 56.041 28.5576C56.041 29.876 56.2852 31.1292 56.7734 32.3174C57.278 33.4893 57.9616 34.5228 58.8242 35.418C59.7031 36.2969 60.7367 36.9967 61.9248 37.5176C63.113 38.0384 64.4069 38.2988 65.8066 38.2988C66.9134 38.2988 67.9714 38.1605 68.9805 37.8838C69.9896 37.6071 70.9743 37.1025 71.9346 36.3701V33.7822H69.2979C68.8421 33.7822 68.4189 33.7008 68.0283 33.5381C67.6377 33.359 67.2959 33.123 67.0029 32.8301C66.7262 32.5371 66.5065 32.1953 66.3438 31.8047C66.181 31.3978 66.0996 30.9746 66.0996 30.5352C66.0996 30.0957 66.181 29.6807 66.3438 29.29C66.5065 28.8994 66.7262 28.5495 67.0029 28.2402C67.2959 27.931 67.6377 27.695 68.0283 27.5322C68.4189 27.3532 68.8421 27.2637 69.2979 27.2637L75.1816 27.3369ZM82.2373 33.0986C82.2861 31.4385 82.6442 29.876 83.3115 28.4111C83.9788 26.9463 84.8659 25.6686 85.9727 24.5781C87.0957 23.4714 88.3896 22.6006 89.8545 21.9658C91.3356 21.3148 92.9062 20.973 94.5664 20.9404H94.7861C95.8604 20.9567 96.6823 21.266 97.252 21.8682C97.8379 22.4704 98.1309 23.2354 98.1309 24.1631C98.1309 24.6351 98.0413 25.0664 97.8623 25.457C97.6833 25.8477 97.4391 26.1895 97.1299 26.4824C96.8369 26.7754 96.4788 27.0033 96.0557 27.166C95.6488 27.3288 95.2174 27.4102 94.7617 27.4102C93.9479 27.4102 93.1748 27.5648 92.4424 27.874C91.7262 28.1833 91.0915 28.6064 90.5381 29.1436C90.001 29.6807 89.5697 30.3154 89.2441 31.0479C88.9186 31.764 88.7477 32.5371 88.7314 33.3672V41.3018C88.7314 41.7575 88.6501 42.1807 88.4873 42.5713C88.3245 42.9619 88.0967 43.3037 87.8037 43.5967C87.5107 43.8734 87.1689 44.0931 86.7783 44.2559C86.404 44.4186 85.9971 44.5 85.5576 44.5C85.1182 44.5 84.695 44.4186 84.2881 44.2559C83.8812 44.0931 83.5231 43.8734 83.2139 43.5967C82.9209 43.3037 82.6849 42.9619 82.5059 42.5713C82.3268 42.1807 82.2373 41.7575 82.2373 41.3018V33.0986ZM105.479 32.8789C105.479 33.6276 105.618 34.3275 105.895 34.9785C106.188 35.6296 106.578 36.1992 107.066 36.6875C107.571 37.1758 108.149 37.5583 108.8 37.835C109.451 38.1117 110.143 38.25 110.875 38.25C111.624 38.25 112.324 38.1117 112.975 37.835C113.642 37.5583 114.22 37.1758 114.708 36.6875C115.196 36.1992 115.579 35.6296 115.855 34.9785C116.148 34.3275 116.295 33.6276 116.295 32.8789C116.295 32.1302 116.148 31.4303 115.855 30.7793C115.579 30.1283 115.196 29.5586 114.708 29.0703C114.22 28.582 113.642 28.1995 112.975 27.9229C112.324 27.6462 111.624 27.5078 110.875 27.5078C110.143 27.5078 109.451 27.6462 108.8 27.9229C108.149 28.1995 107.571 28.582 107.066 29.0703C106.578 29.5586 106.188 30.1283 105.895 30.7793C105.618 31.4303 105.479 32.1302 105.479 32.8789ZM98.9609 32.8789C98.9609 31.235 99.2702 29.6888 99.8887 28.2402C100.523 26.7917 101.378 25.5303 102.452 24.4561C103.543 23.3656 104.804 22.5111 106.236 21.8926C107.685 21.2578 109.231 20.9404 110.875 20.9404C112.519 20.9404 114.065 21.2578 115.514 21.8926C116.962 22.5111 118.224 23.3656 119.298 24.4561C120.372 25.5303 121.218 26.7917 121.837 28.2402C122.472 29.6888 122.789 31.235 122.789 32.8789C122.789 34.5228 122.472 36.069 121.837 37.5176C121.218 38.9499 120.372 40.2031 119.298 41.2773C118.224 42.3516 116.962 43.2061 115.514 43.8408C114.065 44.4593 112.519 44.7686 110.875 44.7686C109.231 44.7686 107.685 44.4593 106.236 43.8408C104.804 43.2061 103.543 42.3516 102.452 41.2773C101.378 40.2031 100.523 38.9499 99.8887 37.5176C99.2702 36.069 98.9609 34.5228 98.9609 32.8789ZM126.036 24.1631C126.036 23.7236 126.118 23.3086 126.28 22.918C126.459 22.5273 126.695 22.1855 126.988 21.8926C127.281 21.5996 127.623 21.3717 128.014 21.209C128.404 21.0299 128.819 20.9404 129.259 20.9404C129.698 20.9404 130.113 21.0299 130.504 21.209C130.911 21.3717 131.261 21.5996 131.554 21.8926C131.863 22.1855 132.099 22.5273 132.262 22.918C132.441 23.3086 132.53 23.7236 132.53 24.1631V33.2695C132.53 33.9857 132.66 34.653 132.921 35.2715C133.181 35.8737 133.539 36.4027 133.995 36.8584C134.467 37.2979 135.012 37.6478 135.631 37.9082C136.266 38.1523 136.941 38.2744 137.657 38.2744C138.373 38.2744 139.016 38.1442 139.586 37.8838C140.156 37.6234 140.636 37.2653 141.026 36.8096C141.417 36.3538 141.718 35.8167 141.93 35.1982C142.141 34.5798 142.247 33.9124 142.247 33.1963V24.1631C142.247 23.7236 142.337 23.3086 142.516 22.918C142.695 22.5273 142.931 22.1855 143.224 21.8926C143.533 21.5996 143.891 21.3717 144.298 21.209C144.705 21.0299 145.128 20.9404 145.567 20.9404C146.007 20.9404 146.422 21.0299 146.812 21.209C147.203 21.3717 147.537 21.5996 147.813 21.8926C148.106 22.1855 148.334 22.5273 148.497 22.918C148.66 23.3086 148.741 23.7236 148.741 24.1631V33.1963C148.741 34.7913 148.465 36.2887 147.911 37.6885C147.358 39.0882 146.585 40.3171 145.592 41.375C144.599 42.4167 143.427 43.2467 142.076 43.8652C140.725 44.4674 139.252 44.7686 137.657 44.7686C136.062 44.7686 134.557 44.4674 133.141 43.8652C131.725 43.2467 130.488 42.4167 129.43 41.375C128.388 40.3171 127.558 39.0882 126.939 37.6885C126.337 36.2887 126.036 34.7913 126.036 33.1963V24.1631ZM153.087 32.6836C153.103 31.0723 153.429 29.5505 154.063 28.1182C154.715 26.6859 155.577 25.4408 156.651 24.3828C157.742 23.3249 159.003 22.4867 160.436 21.8682C161.884 21.2497 163.414 20.9404 165.025 20.9404C166.653 20.9404 168.191 21.2578 169.64 21.8926C171.088 22.5111 172.35 23.3656 173.424 24.4561C174.498 25.5303 175.344 26.7917 175.963 28.2402C176.598 29.6888 176.915 31.235 176.915 32.8789C176.915 34.5228 176.598 36.069 175.963 37.5176C175.344 38.9499 174.498 40.2031 173.424 41.2773C172.35 42.3516 171.088 43.2061 169.64 43.8408C168.191 44.4593 166.653 44.7686 165.025 44.7686C164.049 44.7686 163.105 44.6546 162.193 44.4268C161.282 44.1989 160.411 43.8734 159.581 43.4502V49.5537C159.581 50.0257 159.5 50.4652 159.337 50.8721C159.19 51.2952 158.979 51.6615 158.702 51.9707C158.425 52.2799 158.092 52.516 157.701 52.6787C157.311 52.8577 156.879 52.9473 156.407 52.9473C155.951 52.9473 155.52 52.8577 155.113 52.6787C154.723 52.516 154.373 52.2799 154.063 51.9707C153.771 51.6615 153.535 51.2952 153.355 50.8721C153.176 50.4652 153.087 50.0257 153.087 49.5537V32.6836ZM159.605 32.8789C159.605 33.6276 159.744 34.3275 160.021 34.9785C160.313 35.6296 160.704 36.1992 161.192 36.6875C161.697 37.1758 162.275 37.5583 162.926 37.835C163.593 38.1117 164.293 38.25 165.025 38.25C165.774 38.25 166.474 38.1117 167.125 37.835C167.776 37.5583 168.346 37.1758 168.834 36.6875C169.322 36.1992 169.705 35.6296 169.981 34.9785C170.274 34.3275 170.421 33.6276 170.421 32.8789C170.421 32.1302 170.274 31.4303 169.981 30.7793C169.705 30.1283 169.322 29.5586 168.834 29.0703C168.346 28.582 167.776 28.1995 167.125 27.9229C166.474 27.6462 165.774 27.5078 165.025 27.5078C164.293 27.5078 163.593 27.6462 162.926 27.9229C162.275 28.1995 161.697 28.582 161.192 29.0703C160.704 29.5586 160.313 30.1283 160.021 30.7793C159.744 31.4303 159.605 32.1302 159.605 32.8789ZM180.309 15.4961C180.309 15.0078 180.398 14.5602 180.577 14.1533C180.772 13.7301 181.025 13.3639 181.334 13.0547C181.66 12.7292 182.034 12.4769 182.457 12.2979C182.88 12.1188 183.328 12.0293 183.8 12.0293C184.272 12.0293 184.719 12.1188 185.143 12.2979C185.566 12.4769 185.932 12.7292 186.241 13.0547C186.567 13.3639 186.819 13.7301 186.998 14.1533C187.193 14.5602 187.291 15.0078 187.291 15.4961C187.291 15.9681 187.193 16.4157 186.998 16.8389C186.819 17.262 186.567 17.6364 186.241 17.9619C185.932 18.2712 185.566 18.5153 185.143 18.6943C184.719 18.8734 184.272 18.9629 183.8 18.9629C183.328 18.9629 182.88 18.8734 182.457 18.6943C182.034 18.5153 181.66 18.2712 181.334 17.9619C181.025 17.6364 180.772 17.262 180.577 16.8389C180.398 16.4157 180.309 15.9681 180.309 15.4961ZM180.504 24.1631C180.504 23.7236 180.593 23.3086 180.772 22.918C180.951 22.5273 181.188 22.1855 181.48 21.8926C181.79 21.5996 182.148 21.3717 182.555 21.209C182.962 21.0299 183.393 20.9404 183.849 20.9404C184.288 20.9404 184.703 21.0299 185.094 21.209C185.484 21.3717 185.818 21.5996 186.095 21.8926C186.388 22.1855 186.616 22.5273 186.778 22.918C186.941 23.3086 187.022 23.7236 187.022 24.1631V41.5459C187.022 41.9854 186.933 42.4004 186.754 42.791C186.591 43.1816 186.363 43.5234 186.07 43.8164C185.777 44.1094 185.436 44.3372 185.045 44.5C184.654 44.679 184.239 44.7686 183.8 44.7686C183.36 44.7686 182.937 44.679 182.53 44.5C182.14 44.3372 181.79 44.1094 181.48 43.8164C181.188 43.5234 180.951 43.1816 180.772 42.791C180.593 42.4004 180.504 41.9854 180.504 41.5459V24.1631ZM197.179 32.8789C197.179 33.6276 197.317 34.3275 197.594 34.9785C197.887 35.6296 198.277 36.1992 198.766 36.6875C199.27 37.1758 199.848 37.5583 200.499 37.835C201.15 38.1117 201.842 38.25 202.574 38.25C203.323 38.25 204.023 38.1117 204.674 37.835C205.341 37.5583 205.919 37.1758 206.407 36.6875C206.896 36.1992 207.278 35.6296 207.555 34.9785C207.848 34.3275 207.994 33.6276 207.994 32.8789C207.994 32.1302 207.848 31.4303 207.555 30.7793C207.278 30.1283 206.896 29.5586 206.407 29.0703C205.919 28.582 205.341 28.1995 204.674 27.9229C204.023 27.6462 203.323 27.5078 202.574 27.5078C201.842 27.5078 201.15 27.6462 200.499 27.9229C199.848 28.1995 199.27 28.582 198.766 29.0703C198.277 29.5586 197.887 30.1283 197.594 30.7793C197.317 31.4303 197.179 32.1302 197.179 32.8789ZM190.66 32.8789C190.66 31.235 190.969 29.6888 191.588 28.2402C192.223 26.7917 193.077 25.5303 194.151 24.4561C195.242 23.3656 196.503 22.5111 197.936 21.8926C199.384 21.2578 200.93 20.9404 202.574 20.9404C204.218 20.9404 205.764 21.2578 207.213 21.8926C208.661 22.5111 209.923 23.3656 210.997 24.4561C212.071 25.5303 212.918 26.7917 213.536 28.2402C214.171 29.6888 214.488 31.235 214.488 32.8789C214.488 34.5228 214.171 36.069 213.536 37.5176C212.918 38.9499 212.071 40.2031 210.997 41.2773C209.923 42.3516 208.661 43.2061 207.213 43.8408C205.764 44.4593 204.218 44.7686 202.574 44.7686C200.93 44.7686 199.384 44.4593 197.936 43.8408C196.503 43.2061 195.242 42.3516 194.151 41.2773C193.077 40.2031 192.223 38.9499 191.588 37.5176C190.969 36.069 190.66 34.5228 190.66 32.8789Z" fill="white"/>
</svg>
