<svg width="51" height="91" viewBox="0 0 51 91" fill="none" xmlns="http://www.w3.org/2000/svg">
<path d="M2.58053 88.258C1.35909 86.9866 0.67514 85.2645 0.679099 83.4703C0.683058 81.6762 1.3746 79.9569 2.60164 78.6907L35.0006 45.2661L2.74944 11.7059C1.56271 10.4273 0.908261 8.71677 0.927056 6.94275C0.945848 5.16872 1.63638 3.47312 2.84992 2.22116C4.06346 0.969205 5.70292 0.261062 7.41518 0.249233C9.12745 0.237412 10.7755 0.922852 12.0044 2.15794L48.862 40.5114C50.0835 41.7828 50.7674 43.505 50.7634 45.2991C50.7595 47.0932 50.0679 48.8125 48.8409 50.0788L11.8144 88.2774C10.587 89.5432 8.92471 90.2523 7.1931 90.2487C5.46149 90.2451 3.80235 89.529 2.58053 88.258Z" fill="white"/>
</svg>
